<?xml version="1.0" standalone="no"?>
<!DOCTYPE svg PUBLIC "-//W3C//DTD SVG 1.1//EN" "http://www.w3.org/Graphics/SVG/1.1/DTD/svg11.dtd">
<svg t="1607677493223" class="icon" viewBox="0 0 1562 1024" version="1.1" xmlns="http://www.w3.org/2000/svg" p-id="5924" xmlns:xlink="http://www.w3.org/1999/xlink" width="152.5390625" height="100">
  <defs>
    <style type="text/css"></style>
  </defs>
  <path d="M380.041237 965.938144a411.71134 58.061856 0 1 0 823.422681 0 411.71134 58.061856 0 1 0-823.422681 0Z" fill="#EAEAEA" p-id="5925"></path>
  <path d="M1404.041237 591.175258m-21.113402 0a21.113402 21.113402 0 1 0 42.226804 0 21.113402 21.113402 0 1 0-42.226804 0Z" fill="#55B8FA" p-id="5926"></path>
  <path d="M15.835052 385.319588m-15.835052 0a15.835052 15.835052 0 1 0 31.670103 0 15.835052 15.835052 0 1 0-31.670103 0Z" fill="#A1D8FD" p-id="5927"></path>
  <path d="M1319.587629 459.216495c0-20.057732-16.890722-36.948454-36.948454-36.948454s-36.948454 16.890722-36.948453 36.948454 16.890722 36.948454 36.948453 36.948453 36.948454-16.890722 36.948454-36.948453z m-95.010309 0c0-31.670103 26.391753-58.061856 58.061855-58.061856s58.061856 26.391753 58.061856 58.061856-26.391753 58.061856-58.061856 58.061856-58.061856-26.391753-58.061855-58.061856z" fill="#80CBFD" p-id="5928"></path>
  <path d="M1361.814433 58.061856c0-20.057732-16.890722-36.948454-36.948454-36.948454s-36.948454 16.890722-36.948453 36.948454 16.890722 36.948454 36.948453 36.948453 36.948454-16.890722 36.948454-36.948453z m-52.783505 0c0-8.445361 7.389691-15.835052 15.835051-15.835052s15.835052 7.389691 15.835052 15.835052-7.389691 15.835052-15.835052 15.835051-15.835052-7.389691-15.835051-15.835051zM1508.552577 326.202062h-17.946391c-6.334021 0-11.612371 5.278351-11.612372 11.612371 0 6.334021 5.278351 11.612371 11.612372 11.612371h17.946391v17.946392c0 6.334021 5.278351 11.612371 11.612371 11.612371 6.334021 0 11.612371-5.278351 11.612372-11.612371v-17.946392h17.946391c6.334021 0 11.612371-5.278351 11.612371-11.612371 0-6.334021-5.278351-11.612371-11.612371-11.612371h-17.946391v-17.946392c0-6.334021-5.278351-11.612371-11.612372-11.612371-6.334021 0-11.612371 5.278351-11.612371 11.612371v17.946392z" fill="#A1D8FD" p-id="5929"></path>
  <path d="M221.690722 696.742268h-31.670103c-5.278351 0-10.556701 4.22268-10.556701 10.556701s4.22268 10.556701 10.556701 10.556701h31.670103v31.670103c0 5.278351 4.22268 10.556701 10.556701 10.556701s10.556701-4.22268 10.556701-10.556701v-31.670103h31.670103c5.278351 0 10.556701-4.22268 10.556701-10.556701s-4.22268-10.556701-10.556701-10.556701h-31.670103v-31.670103c0-5.278351-4.22268-10.556701-10.556701-10.556701s-10.556701 4.22268-10.556701 10.556701v31.670103z" fill="#80CBFD" p-id="5930"></path>
  <path d="M1115.843299 844.536082h-668.239175c-24.280412 0-44.338144-20.057732-44.338145-44.338144v-475.051546h713.63299c24.280412 0 44.338144 20.057732 44.338144 44.338144v430.713402c-1.05567 24.280412-21.113402 44.338144-45.393814 44.338144z m-713.63299-598.564948c0-24.280412 20.057732-44.338144 44.338145-44.338144h162.573195c80.230928 0 178.408247 65.451546 267.084537 100.288659h-473.995877v-55.950515z" fill="#FFFFFF" p-id="5931"></path>
  <path d="M424.379381 832.923711c-24.280412 0-44.338144-20.057732-44.338144-44.338144v-564.783505c0-24.280412 20.057732-44.338144 44.338144-44.338144h185.797939c110.845361 0 251.249485 123.513402 358.927835 123.513402h168.907216c24.280412 0 44.338144 20.057732 44.338144 44.338144v442.325773c0 24.280412-20.057732 44.338144-44.338144 44.338144h-713.63299v-1.05567z m184.742268-631.290721h-162.573195c-24.280412 0-44.338144 20.057732-44.338145 44.338144v55.950515h473.995877c-88.676289-35.892784-186.853608-100.28866-267.084537-100.288659z m506.72165 122.457732h-713.63299v442.325773c0 24.280412 20.057732 44.338144 44.338145 44.338144h668.239175c24.280412 0 44.338144-20.057732 44.338144-44.338144V369.484536c1.05567-25.336082-19.002062-45.393814-43.282474-45.393814z m-178.408247 223.802062c-12.668041 0-22.169072-9.501031-22.169073-22.169073 0-12.668041 9.501031-22.169072 22.169073-22.169072 12.668041 0 22.169072 9.501031 22.169072 22.169072 0 12.668041-10.556701 22.169072-22.169072 22.169073z m4.22268 64.395876c-34.837113 45.393814-90.787629 76.008247-152.016495 76.008247-59.117526 0-111.901031-26.391753-146.738144-68.618556-5.278351-7.389691 9.501031-22.169072 17.946392-13.723712 31.670103 36.948454 77.063918 60.173196 128.791752 60.173196 53.839175 0 102.4-25.336082 134.070103-65.451546 6.334021-8.445361 24.280412 5.278351 17.946392 11.612371z m-294.531959-64.395876c-12.668041 0-22.169072-9.501031-22.169072-22.169073 0-12.668041 9.501031-22.169072 22.169072-22.169072 12.668041 0 22.169072 9.501031 22.169072 22.169072 0 12.668041-9.501031 22.169072-22.169072 22.169073z" fill="#90999F" p-id="5932"></path>
  <path d="M463.439175 301.921649l-19.002062-197.410309s-6.334021-30.614433 47.505155-36.948453 420.156701-45.393814 420.156701-45.393815l134.070103 102.4s12.668041 23.224742 16.890722 49.616495c4.22268 26.391753 13.723711 128.791753 13.723711 128.791753h-613.34433v-1.055671z" fill="#F2FAFF" p-id="5933"></path>
  <path d="M976.494845 48.560825c-5.278351-3.16701-11.612371-2.11134-15.835051 2.11134-3.16701 5.278351-2.11134 11.612371 2.11134 15.835051 13.723711 9.501031 24.280412 17.946392 35.892784 26.391753 5.278351 4.22268 11.612371 3.16701 15.835051-2.11134s3.16701-11.612371-2.11134-15.835052c-11.612371-8.445361-22.169072-16.890722-35.892784-26.391752zM946.936082 139.348454l-9.50103-43.282475c-1.05567-6.334021-7.389691-9.501031-13.723712-8.44536-6.334021 1.05567-9.501031 7.389691-8.445361 13.723711l9.501031 43.282474c1.05567 6.334021 7.389691 9.501031 13.723712 8.445361s9.501031-7.389691 8.44536-13.723711zM999.719588 134.070103l-44.338145 7.389691c-6.334021 1.05567-10.556701 7.389691-9.501031 12.668041s6.334021 10.556701 12.668042 9.501031l44.338144-7.389691c6.334021-1.05567 10.556701-7.389691 9.501031-12.668041-1.05567-7.389691-6.334021-11.612371-12.668041-9.501031zM921.6 76.008247c6.334021-1.05567 9.501031-7.389691 8.445361-13.723711l-5.278351-24.280412c3.16701 2.11134 6.334021 5.278351 10.556701 7.38969 5.278351 3.16701 11.612371 2.11134 15.835052-2.11134 3.16701-5.278351 2.11134-11.612371-2.11134-15.835051-16.890722-12.668041-23.224742-16.890722-31.670103-23.224743l-3.167011-2.11134h-4.22268l-6.334021 1.05567c-6.334021 1.05567-10.556701 6.334021-9.501031 12.668042 0 3.16701 2.11134 6.334021 5.278351 8.44536l9.501031 43.282475c1.05567 6.334021 7.389691 9.501031 12.668041 8.44536zM440.214433 163.628866c6.334021-1.05567 10.556701-6.334021 9.501031-12.668041l-4.22268-43.282474v-1.055671c0-6.334021-5.278351-10.556701-11.612372-10.556701s-10.556701 5.278351-10.556701 11.612372v2.11134l4.222681 43.282474c1.05567 7.389691 6.334021 11.612371 12.668041 10.556701zM1087.340206 243.859794c-1.05567-6.334021-6.334021-10.556701-12.668041-9.501031-6.334021 1.05567-10.556701 6.334021-9.501031 12.668041l4.22268 44.338144c1.05567 6.334021 6.334021 10.556701 12.668042 9.501031s10.556701-6.334021 9.501031-12.668041l-4.222681-44.338144zM1073.616495 222.746392c6.334021-1.05567 10.556701-6.334021 9.501031-12.668041l-4.222681-44.338145c-1.05567-6.334021-6.334021-10.556701-12.668041-9.501031-6.334021 1.05567-10.556701 6.334021-9.501031 12.668041l4.222681 44.338145c1.05567 6.334021 7.389691 10.556701 12.668041 9.501031zM1063.059794 144.626804h3.16701c6.334021-1.05567 10.556701-6.334021 9.501031-12.668041V125.624742l-3.16701-3.16701c-10.556701-8.445361-21.113402-17.946392-32.725773-27.447423-5.278351-4.22268-11.612371-3.16701-15.835052 2.11134s-3.16701 11.612371 2.11134 15.835052l15.835052 12.668041-8.445361 1.05567c-6.334021 1.05567-10.556701 7.389691-9.501031 12.668042 1.05567 6.334021 6.334021 10.556701 12.668041 9.501031l25.336083-4.222681c0 1.05567 1.05567 0 1.05567 0zM870.927835 7.389691l-44.338144 4.22268c-6.334021 1.05567-10.556701 6.334021-9.501031 12.668041 1.05567 6.334021 6.334021 10.556701 12.668041 9.501031l44.338144-4.22268c6.334021-1.05567 10.556701-6.334021 9.501031-12.668041-1.05567-5.278351-6.334021-9.501031-12.668041-9.501031zM449.715464 253.360825c-6.334021 1.05567-10.556701 6.334021-9.501031 12.668041l4.22268 44.338144c1.05567 6.334021 6.334021 10.556701 12.668042 9.501031 6.334021-1.05567 10.556701-6.334021 9.501031-12.668041l-4.222681-44.338144c-1.05567-6.334021-6.334021-10.556701-12.668041-9.501031zM483.496907 48.560825l-9.501031 1.05567c-14.779381 1.05567-28.503093 8.445361-36.948453 20.057732-4.22268 5.278351-3.16701 11.612371 1.05567 15.835051 5.278351 4.22268 11.612371 3.16701 15.835051-1.05567 5.278351-6.334021 13.723711-11.612371 22.169072-11.612371l9.501031-1.05567c6.334021-1.05567 10.556701-6.334021 9.501031-12.668041 0-6.334021-5.278351-11.612371-11.612371-10.556701zM793.863918 15.835052l-44.338145 4.22268c-6.334021 1.05567-10.556701 6.334021-9.501031 12.668041s6.334021 10.556701 12.668042 9.501031l44.338144-4.22268c6.334021-1.05567 10.556701-6.334021 9.501031-12.668042-1.05567-5.278351-6.334021-10.556701-12.668041-9.50103zM448.659794 241.748454c6.334021-1.05567 10.556701-6.334021 9.501031-12.668042l-4.222681-44.338144c-1.05567-6.334021-6.334021-10.556701-12.668041-9.501031-6.334021 1.05567-10.556701 6.334021-9.501031 12.668041l4.222681 44.338145c1.05567 5.278351 6.334021 10.556701 12.668041 9.501031zM560.560825 40.115464l-44.338145 4.22268c-6.334021 1.05567-10.556701 6.334021-9.501031 12.668042s6.334021 10.556701 12.668042 9.50103l44.338144-4.22268c6.334021-1.05567 10.556701-6.334021 9.501031-12.668041-1.05567-5.278351-6.334021-9.501031-12.668041-9.501031zM715.74433 24.280412l-44.338144 4.222681c-6.334021 1.05567-10.556701 6.334021-9.501031 12.668041 1.05567 6.334021 6.334021 10.556701 12.668041 9.501031l44.338144-4.22268c6.334021-1.05567 10.556701-6.334021 9.501031-12.668042-1.05567-6.334021-6.334021-10.556701-12.668041-9.501031zM638.680412 32.725773l-44.338144 4.222681c-6.334021 1.05567-10.556701 6.334021-9.501031 12.668041 1.05567 6.334021 6.334021 10.556701 12.668041 9.501031l44.338145-4.222681c6.334021-1.05567 10.556701-6.334021 9.501031-12.668041-1.05567-6.334021-6.334021-10.556701-12.668042-9.501031z" fill="#90999F" p-id="5934"></path>
</svg>